# xmcd
#
# Track frame offsets: 
#        150
#        30877
#        47985
#        79135
#        97452
#        117407
#        139560
#        161510
#        179920
#        211615
#        226522
#
# Disc length: 3455 seconds
#
# Revision: 0
# Processed by: cddbd v1.5.2PL0 Copyright (c) Steve Scherf et al.
# Submitted via: ExactAudioCopy v0.99pb5
#
DISCID=8d0d7d0b
DTITLE=Dave Nevling - Nightshade
DYEAR=2002
DGENRE=Blues
TTITLE0=From Above
TTITLE1=Feast Or Famine
TTITLE2=Nightshade
TTITLE3=Anna's Shuffle
TTITLE4=Fine Lines
TTITLE5=I Don't Need Much
TTITLE6=Be My Baby
TTITLE7=Jury's Out
TTITLE8=Insatiable
TTITLE9=Copasetic
TTITLE10=Without A Warning
EXTD=
EXTT0=
EXTT1=
EXTT2=
EXTT3=
EXTT4=
EXTT5=
EXTT6=
EXTT7=
EXTT8=
EXTT9=
EXTT10=
PLAYORDER=
